<svg width="451" height="564" viewBox="0 0 451 564" fill="none" xmlns="http://www.w3.org/2000/svg">
<path d="M435.967 0H15.0333C6.73065 0 0 6.73364 0 15.04V548.96C0 557.266 6.73065 564 15.0333 564H435.967C444.269 564 451 557.266 451 548.96V15.04C451 6.73364 444.269 0 435.967 0Z" fill="#B8C5D0"/>
<path fill-rule="evenodd" clip-rule="evenodd" d="M30.0667 60.16H420.933C429.235 60.16 435.967 66.8938 435.967 75.2V533.92C435.967 542.226 429.235 548.96 420.933 548.96H30.0667C21.764 548.96 15.0333 542.226 15.0333 533.92V75.2C15.0333 66.8938 21.764 60.16 30.0667 60.16ZM22.55 22.56C26.7013 22.56 30.0667 25.9268 30.0667 30.08C30.0667 34.2332 26.7013 37.6 22.55 37.6C18.3986 37.6 15.0333 34.2332 15.0333 30.08C15.0333 25.9268 18.3986 22.56 22.55 22.56ZM45.1 22.56C49.2514 22.56 52.6167 25.9268 52.6167 30.08C52.6167 34.2332 49.2514 37.6 45.1 37.6C40.9485 37.6 37.5833 34.2332 37.5833 30.08C37.5833 25.9268 40.9485 22.56 45.1 22.56ZM67.65 22.56C71.8014 22.56 75.1667 25.9268 75.1667 30.08C75.1667 34.2332 71.8014 37.6 67.65 37.6C63.4985 37.6 60.1333 34.2332 60.1333 30.08C60.1333 25.9268 63.4985 22.56 67.65 22.56Z" fill="white"/>
<path d="M139.058 105.28H37.5833C29.2806 105.28 22.55 112.014 22.55 120.32V218.08C22.55 226.386 29.2806 233.12 37.5833 233.12H139.058C147.361 233.12 154.092 226.386 154.092 218.08V120.32C154.092 112.014 147.361 105.28 139.058 105.28Z" fill="#B8C5D0"/>
<path fill-rule="evenodd" clip-rule="evenodd" d="M90.2 209.77C106.804 209.77 120.267 217.366 120.267 226.728C120.267 236.09 106.804 232.368 90.2 232.368C73.5957 232.368 60.1333 236.09 60.1333 226.728C60.1333 217.366 73.5957 209.77 90.2 209.77ZM90.2 154.16C103.94 154.344 114.947 165.605 114.823 179.351C114.701 193.098 103.494 204.16 89.7531 204.098C76.0119 204.036 64.9057 192.874 64.9064 179.126C64.95 172.46 67.6399 166.083 72.3836 161.401C77.1274 156.719 83.5361 154.114 90.2 154.16Z" fill="#1D242B"/>
<path d="M293.15 112.8H180.4C178.324 112.8 176.642 114.483 176.642 116.56V120.32C176.642 122.397 178.324 124.08 180.4 124.08H293.15C295.226 124.08 296.908 122.397 296.908 120.32V116.56C296.908 114.483 295.226 112.8 293.15 112.8Z" fill="#1D242B"/>
<path d="M330.733 146.64H180.4C178.324 146.64 176.642 148.323 176.642 150.4V154.16C176.642 156.237 178.324 157.92 180.4 157.92H330.733C332.809 157.92 334.492 156.237 334.492 154.16V150.4C334.492 148.323 332.809 146.64 330.733 146.64Z" fill="#B8C5D0"/>
<path d="M405.9 169.2H180.4C178.324 169.2 176.642 170.883 176.642 172.96V176.72C176.642 178.797 178.324 180.48 180.4 180.48H405.9C407.976 180.48 409.658 178.797 409.658 176.72V172.96C409.658 170.883 407.976 169.2 405.9 169.2Z" fill="#B8C5D0"/>
<path d="M409.658 191.76H180.4C178.324 191.76 176.642 193.443 176.642 195.52V199.28C176.642 201.357 178.324 203.04 180.4 203.04H409.658C411.734 203.04 413.417 201.357 413.417 199.28V195.52C413.417 193.443 411.734 191.76 409.658 191.76Z" fill="#B8C5D0"/>
<path d="M345.767 214.32H180.4C178.324 214.32 176.642 216.003 176.642 218.08V221.84C176.642 223.917 178.324 225.6 180.4 225.6H345.767C347.842 225.6 349.525 223.917 349.525 221.84V218.08C349.525 216.003 347.842 214.32 345.767 214.32Z" fill="#B8C5D0"/>
<path d="M139.058 240.64H37.5833C29.2806 240.64 22.55 247.374 22.55 255.68V353.44C22.55 361.746 29.2806 368.48 37.5833 368.48H139.058C147.361 368.48 154.092 361.746 154.092 353.44V255.68C154.092 247.374 147.361 240.64 139.058 240.64Z" fill="#B8C5D0"/>
<path fill-rule="evenodd" clip-rule="evenodd" d="M90.2 345.13C106.804 345.13 120.267 352.726 120.267 362.088C120.267 371.45 106.804 367.728 90.2 367.728C73.5957 367.728 60.1333 371.45 60.1333 362.088C60.1333 352.726 73.5957 345.13 90.2 345.13ZM90.2 289.52C103.94 289.704 114.947 300.965 114.823 314.711C114.701 328.458 103.494 339.52 89.7531 339.458C76.0119 339.396 64.9057 328.234 64.9064 314.486C64.95 307.82 67.6399 301.443 72.3836 296.761C77.1274 292.079 83.5361 289.474 90.2 289.52Z" fill="#1D242B"/>
<path d="M330.733 248.16H180.4C178.324 248.16 176.642 249.843 176.642 251.92V255.68C176.642 257.757 178.324 259.44 180.4 259.44H330.733C332.809 259.44 334.492 257.757 334.492 255.68V251.92C334.492 249.843 332.809 248.16 330.733 248.16Z" fill="#1D242B"/>
<path d="M409.658 282H180.4C178.324 282 176.642 283.683 176.642 285.76V289.52C176.642 291.597 178.324 293.28 180.4 293.28H409.658C411.734 293.28 413.417 291.597 413.417 289.52V285.76C413.417 283.683 411.734 282 409.658 282Z" fill="#B8C5D0"/>
<path d="M398.383 304.56H180.4C178.324 304.56 176.642 306.243 176.642 308.32V312.08C176.642 314.157 178.324 315.84 180.4 315.84H398.383C400.459 315.84 402.142 314.157 402.142 312.08V308.32C402.142 306.243 400.459 304.56 398.383 304.56Z" fill="#B8C5D0"/>
<path d="M390.867 327.12H180.4C178.324 327.12 176.642 328.803 176.642 330.88V334.64C176.642 336.717 178.324 338.4 180.4 338.4H390.867C392.942 338.4 394.625 336.717 394.625 334.64V330.88C394.625 328.803 392.942 327.12 390.867 327.12Z" fill="#B8C5D0"/>
<path d="M345.767 349.68H180.4C178.324 349.68 176.642 351.363 176.642 353.44V357.2C176.642 359.277 178.324 360.96 180.4 360.96H345.767C347.842 360.96 349.525 359.277 349.525 357.2V353.44C349.525 351.363 347.842 349.68 345.767 349.68Z" fill="#B8C5D0"/>
<path d="M139.058 376H37.5833C29.2806 376 22.55 382.734 22.55 391.04V488.8C22.55 497.106 29.2806 503.84 37.5833 503.84H139.058C147.361 503.84 154.092 497.106 154.092 488.8V391.04C154.092 382.734 147.361 376 139.058 376Z" fill="#B8C5D0"/>
<path fill-rule="evenodd" clip-rule="evenodd" d="M90.2 480.49C106.804 480.49 120.267 488.086 120.267 497.448C120.267 506.81 106.804 503.088 90.2 503.088C73.5957 503.088 60.1333 506.81 60.1333 497.448C60.1333 488.086 73.5957 480.49 90.2 480.49ZM90.2 424.88C103.94 425.064 114.947 436.325 114.823 450.072C114.701 463.819 103.494 474.88 89.7531 474.817C76.0119 474.756 64.9057 463.593 64.9064 449.846C64.95 443.18 67.6399 436.803 72.3836 432.122C77.1274 427.441 83.5361 424.835 90.2 424.88Z" fill="#1D242B"/>
<path d="M368.317 383.52H180.4C178.324 383.52 176.642 385.203 176.642 387.28V391.04C176.642 393.117 178.324 394.8 180.4 394.8H368.317C370.392 394.8 372.075 393.117 372.075 391.04V387.28C372.075 385.203 370.392 383.52 368.317 383.52Z" fill="#1D242B"/>
<path d="M293.15 417.36H180.4C178.324 417.36 176.642 419.043 176.642 421.12V424.88C176.642 426.957 178.324 428.64 180.4 428.64H293.15C295.226 428.64 296.908 426.957 296.908 424.88V421.12C296.908 419.043 295.226 417.36 293.15 417.36Z" fill="#B8C5D0"/>
<path d="M379.592 439.92H180.4C178.324 439.92 176.642 441.603 176.642 443.68V447.44C176.642 449.517 178.324 451.2 180.4 451.2H379.592C381.667 451.2 383.35 449.517 383.35 447.44V443.68C383.35 441.603 381.667 439.92 379.592 439.92Z" fill="#B8C5D0"/>
<path d="M394.625 462.48H180.4C178.324 462.48 176.642 464.163 176.642 466.24V470C176.642 472.077 178.324 473.76 180.4 473.76H394.625C396.701 473.76 398.383 472.077 398.383 470V466.24C398.383 464.163 396.701 462.48 394.625 462.48Z" fill="#B8C5D0"/>
<path d="M326.975 485.04H180.4C178.324 485.04 176.642 486.723 176.642 488.8V492.56C176.642 494.637 178.324 496.32 180.4 496.32H326.975C329.051 496.32 330.733 494.637 330.733 492.56V488.8C330.733 486.723 329.051 485.04 326.975 485.04Z" fill="#B8C5D0"/>
</svg>
